<?xml version="1.0" encoding="utf-8"?>
<svg xmlns="http://www.w3.org/2000/svg" viewBox="0 0 500 500"
    xmlns:bx="https://boxy-svg.com" width="500px" height="500px">
    <g transform="matrix(1, 0, 0, 1, -0.00029, 0)">
        <path id="-2" d="M 354.426 200.138 C 357.278 217.251 354.855 239.192 348.353 255.138 C 338.295 279.803 314.661 303.398 289.722 313.672 C 279.545 317.865 276.168 318.573 272.682 317.247 C 269.245 315.94 266.571 310.892 267.375 307.23 C 267.747 305.537 270.58 302.143 274.696 298.457 C 278.48 295.069 282.716 290.087 284.402 287.042 C 287.166 282.05 287.395 280.875 287.393 271.638 C 287.391 262.364 287.162 261.203 284.244 255.638 C 282.513 252.338 276.725 244.013 271.38 237.138 C 266.035 230.263 260.322 221.826 258.684 218.388 C 257.046 214.95 255.499 212.138 255.245 212.138 C 254.991 212.138 253.629 214.663 252.216 217.749 C 249.182 224.377 248.314 232.803 249.657 242.608 C 250.747 250.569 249.828 255.413 246.549 258.983 C 240.183 265.913 230.608 265.837 222.251 258.79 C 220.522 257.332 218.878 256.138 218.6 256.138 C 217.237 256.138 215.699 267.155 216.107 273.985 C 216.855 286.493 220.953 293.195 233.829 302.964 C 236.375 304.896 236.895 305.987 236.895 309.4 C 236.895 318.275 230.538 320.223 216.517 315.646 C 194.552 308.476 173.562 292.79 160.817 274.022 C 155.28 265.869 148.535 251.301 146.285 242.638 C 143.624 232.389 143.8 210.361 146.626 200.107 C 151.663 181.828 163.239 159.348 172.946 148.993 C 178.458 143.113 182.907 142.392 186.971 146.719 C 189.238 149.133 189.395 150.025 189.395 160.469 C 189.395 169.787 189.751 172.408 191.544 176.287 C 195.588 185.036 200.758 187.495 205.581 182.964 C 207.551 181.113 207.891 179.812 207.871 174.214 C 207.858 170.597 207.418 165.838 206.893 163.638 C 203.522 149.512 203.804 126.138 207.5 113.423 C 213.271 93.571 226.895 75.567 245.361 63.388 C 254.815 57.153 259.901 56.387 263.862 60.603 C 266.642 63.562 266.705 65.521 264.46 79.138 C 262.491 91.08 262.919 101.001 265.908 112.689 C 269.096 125.152 279.441 143.213 287.07 149.632 C 288.15 150.541 289.229 151.449 290.309 152.358 C 291.047 151.5 291.786 150.641 292.524 149.783 C 295.948 145.802 297.382 137.091 296.043 128.409 C 294.798 120.339 295.48 117.242 299.054 114.739 C 304.786 110.724 310.512 114.377 322.404 129.638 C 339.019 150.959 350.409 176.036 354.426 200.138 Z M 163.306 208.498 C 160.254 224.507 164.004 244.103 173.093 259.638 C 176.954 266.238 195.437 286.138 197.705 286.138 C 198.276 286.138 198.461 281.849 198.169 275.388 C 197.563 261.967 199.235 254.198 205.512 241.263 C 210.639 230.698 213.813 227.138 218.107 227.138 C 222.8 227.138 224.877 228.905 227.902 235.467 C 228.85 237.524 229.799 239.581 230.747 241.638 C 230.772 239.071 230.796 236.504 230.821 233.937 C 231.001 215.256 238.098 200.413 252.437 188.733 C 259.013 183.376 261.79 182.438 265.953 184.162 C 269.987 185.833 270.876 187.811 271.351 196.172 C 271.882 205.521 275.362 212.812 285.413 225.638 C 301.739 246.47 305.02 253.838 305.87 271.583 C 306.045 275.231 306.22 278.88 306.395 282.528 C 307.641 281.432 308.887 280.336 310.133 279.24 C 319.213 271.253 329.567 255.183 333.784 242.532 C 342.147 217.443 335.642 182.096 317.422 153.613 C 316.163 151.645 314.905 149.677 313.646 147.709 C 312.974 149.51 312.302 151.31 311.63 153.111 C 309.106 159.878 301.752 167.502 296.12 169.189 C 286.508 172.069 277.318 167.461 267.23 154.703 C 253.438 137.261 244.979 114.234 244.85 93.778 C 244.835 91.398 244.82 89.018 244.805 86.638 C 242.963 88.634 241.122 90.631 239.28 92.627 C 233.178 99.242 226.821 111.168 224.349 120.638 C 222.206 128.849 222.213 147.249 224.364 158.638 C 228.079 178.314 225.997 189.358 217.093 197.195 C 203.498 209.162 184.771 203.988 175.659 185.747 C 174.845 184.117 174.03 182.485 173.216 180.855 C 172.208 183.008 171.201 185.162 170.193 187.315 C 166.317 195.598 164.984 199.698 163.306 208.498 Z" 
            fill="rgb(149, 119, 68)" stroke="none" style="stroke-width: 1;"/>
    </g>
    <path id="-3" d="M 163.482 209.11 C 165.16 200.31 166.493 196.21 170.369 187.927 C 171.377 185.774 172.384 183.62 173.392 181.467 C 174.206 183.097 175.021 184.729 175.835 186.359 C 184.947 204.6 203.674 209.774 217.269 197.807 C 226.173 189.97 228.255 178.926 224.54 159.25 C 222.389 147.861 222.382 129.461 224.525 121.25 C 226.997 111.78 233.354 99.854 239.456 93.239 C 241.298 91.243 243.139 89.246 244.981 87.25 C 244.996 89.63 245.011 92.01 245.026 94.39 C 245.155 114.846 253.614 137.873 267.406 155.315 C 277.494 168.073 286.684 172.681 296.296 169.801 C 301.928 168.114 309.282 160.49 311.806 153.723 C 312.478 151.922 313.15 150.122 313.822 148.321 C 315.081 150.289 316.339 152.257 317.598 154.225 C 335.818 182.708 342.323 218.055 333.96 243.144 C 329.743 255.795 319.389 271.865 310.309 279.852 C 309.063 280.948 307.817 282.044 306.571 283.14 C 306.396 279.492 306.221 275.843 306.046 272.195 C 305.196 254.45 301.915 247.082 285.589 226.25 C 275.538 213.424 272.058 206.133 271.527 196.784 C 271.052 188.423 270.163 186.445 266.129 184.774 C 261.966 183.05 259.189 183.988 252.613 189.345 C 238.274 201.025 231.177 215.868 230.997 234.549 C 230.972 237.116 230.948 239.683 230.923 242.25 C 229.975 240.193 229.026 238.136 228.078 236.079 C 225.053 229.517 222.976 227.75 218.283 227.75 C 213.989 227.75 210.815 231.31 205.688 241.875 C 199.411 254.81 197.739 262.579 198.345 276 C 198.637 282.461 198.452 286.75 197.881 286.75 C 195.613 286.75 177.13 266.85 173.269 260.25 C 164.18 244.715 160.43 225.119 163.482 209.11 Z" stroke="none" 
        style="stroke-width: 1; fill: rgb(255, 208, 128);"/>
    <text>
        <tspan   style="font-size: 90px; word-spacing: 0px; fill: rgb(210, 210, 210); font-family: Afacad; font-size: 90px; font-weight: 700; white-space: pre;" x="49.964" y="409.658" >Fire</tspan> 
        <tspan style="fill: rgb(255, 208, 128); font-size: 90px; word-spacing: 0px; stroke-width: 1;">Vision</tspan>
    </text>

        <g transform="matrix(1, 0, 0, 1, -0.596993, 0)">
        <ellipse style="fill: rgb(255, 208, 128);" cx="198" cy="453.543" rx="11.825" ry="11.825"/>
        <ellipse style="fill: rgb(255, 208, 128);" cx="250.597" cy="453.987" rx="11.825" ry="11.825"/>
        <ellipse style="fill: rgb(255, 208, 128);" cx="303.194" cy="453.723" rx="11.825" ry="11.825"/>
    </g>
</svg>